<?xml version="1.0" standalone="no"?>
<!DOCTYPE svg PUBLIC "-//W3C//DTD SVG 20010904//EN"
 "http://www.w3.org/TR/2001/REC-SVG-20010904/DTD/svg10.dtd">
<svg version="1.0" xmlns="http://www.w3.org/2000/svg"
 width="200.000000pt" height="200.000000pt" viewBox="0 0 200.000000 200.000000"
 preserveAspectRatio="xMidYMid meet">

<g transform="translate(0.000000,200.000000) scale(0.100000,-0.100000)"
stroke="none">
<path fill="#ff9900" d="M116 1923 c-29 -15 -63 -112 -76 -221 -12 -96 -1 -131 50 -152 41
-17 70 -1 160 85 82 78 116 95 196 95 55 0 65 -3 76 -22 10 -18 13 -115 12
-423 0 -398 -7 -561 -26 -622 -5 -19 -41 -65 -84 -107 -80 -81 -91 -109 -54
-146 19 -19 33 -20 326 -20 305 0 328 2 361 36 24 24 13 50 -42 98 -64 56
-102 123 -116 205 -16 97 -23 592 -10 751 19 231 32 260 117 260 48 0 116 -41
189 -113 24 -25 56 -47 71 -50 73 -14 137 41 136 116 0 48 -30 186 -44 204
-22 28 -125 33 -666 36 -416 1 -559 -1 -576 -10z"/>
<path fill="#000000" class="svg1" d="M111 1934 c-21 -15 -29 -36 -63 -169 -30 -119 -29 -152 10 -186 54
-48 98 -38 172 41 115 121 231 137 287 38 17 -30 18 -66 20 -448 3 -544 4
-541 -134 -675 -59 -56 -67 -89 -32 -121 19 -18 42 -19 303 -22 299 -4 357 0
381 24 16 16 21 84 7 84 -20 0 -101 92 -125 142 -34 71 -47 216 -47 518 0 307
15 504 41 546 11 18 26 35 35 38 52 20 124 -11 216 -93 36 -32 77 -61 91 -65
36 -9 97 14 120 45 23 31 35 113 18 123 -6 4 -11 18 -11 31 0 13 -5 47 -11 75
-8 39 -17 54 -37 64 -41 21 -1212 30 -1241 10z m744 -20 c345 -5 483 -11 491
-19 19 -19 32 -80 25 -116 -4 -22 -10 -29 -14 -21 -14 22 -63 14 -81 -12 -20
-32 -3 -43 24 -16 24 24 34 25 55 4 24 -24 15 -66 -17 -82 -38 -18 -83 7 -138
76 -68 87 -142 121 -210 98 -46 -16 -93 -52 -112 -85 -14 -25 -15 -114 -1
-118 4 -2 6 -40 4 -85 -2 -46 -6 -75 -10 -66 -10 27 -2 -501 9 -649 6 -72 17
-150 25 -172 15 -43 85 -153 85 -134 0 6 14 -1 30 -15 36 -32 38 -54 7 -74
-18 -13 -77 -16 -324 -17 l-301 -2 -16 22 c-10 15 -12 27 -6 34 5 7 7 14 5 17
-3 3 21 28 53 56 62 54 93 103 110 177 3 11 7 236 8 499 3 373 1 482 -9 488
-9 6 -9 8 1 8 18 0 -36 48 -79 71 -26 13 -51 17 -88 14 -79 -7 -110 -28 -176
-119 -30 -41 -88 -68 -120 -56 -33 13 -40 32 -23 66 17 36 32 40 58 14 25 -25
45 -18 27 10 -8 13 -23 20 -44 20 -29 0 -33 3 -33 25 0 14 5 25 11 25 7 0 9 9
6 22 -3 12 -1 31 6 42 6 12 12 28 13 36 2 8 13 23 26 34 21 17 35 18 133 12
61 -3 326 -9 590 -12z"/>
<path fill="#452d86" d="M1373 1245 c-134 -37 -231 -102 -275 -188 -30 -59 -36 -177 -13 -248
21 -61 98 -150 157 -180 20 -10 117 -35 215 -54 202 -39 273 -67 296 -118 8
-18 14 -43 12 -57 -1 -14 -3 -33 -4 -42 -2 -31 -55 -75 -116 -97 -147 -53
-320 -14 -450 100 -31 27 -58 49 -61 49 -12 0 -156 -105 -161 -117 -8 -20 93
-120 163 -162 30 -19 98 -49 152 -67 87 -30 108 -34 208 -34 186 0 319 45 405
137 48 51 88 136 96 208 8 62 -32 178 -81 239 -63 77 -138 109 -365 158 -102
21 -196 46 -209 54 -32 21 -56 76 -48 109 10 40 56 81 107 97 24 7 82 13 129
13 72 0 93 -4 140 -27 30 -14 72 -43 94 -62 21 -20 43 -36 48 -36 15 0 167
114 167 126 1 22 -107 111 -178 148 -38 20 -98 43 -133 51 -78 18 -226 18
-295 0z"/>
</g>
</svg>