<?xml version="1.0" standalone="no"?>
<!DOCTYPE svg PUBLIC "-//W3C//DTD SVG 20010904//EN"
 "http://www.w3.org/TR/2001/REC-SVG-20010904/DTD/svg10.dtd">
<svg version="1.0" xmlns="http://www.w3.org/2000/svg"
 width="200.000000pt" height="200.000000pt" viewBox="0 0 200.000000 200.000000"
 preserveAspectRatio="xMidYMid meet">

<g transform="translate(0.000000,200.000000) scale(0.100000,-0.100000)"
fill="#000000" stroke="none">
<path d="M995 1825 c-44 -15 -110 -82 -117 -117 -6 -33 5 -81 20 -86 6 -2 12
4 12 13 0 35 39 93 71 104 70 24 126 0 242 -106 59 -54 77 -60 121 -43 45 17
66 46 66 93 0 53 -30 87 -78 87 -38 0 -74 -42 -53 -63 10 -9 16 -7 28 11 19
27 49 29 63 3 15 -29 13 -39 -15 -57 -37 -24 -80 -3 -143 73 -76 90 -138 116
-217 88z"/>
<path d="M380 1801 c-56 -18 -91 -44 -135 -100 -51 -65 -90 -86 -131 -71 -20
8 -25 16 -22 36 2 15 11 32 21 38 15 9 22 7 37 -12 20 -24 40 -22 40 3 0 47
-76 60 -117 19 -51 -51 -10 -148 68 -160 32 -6 41 -1 100 51 35 31 82 67 104
80 94 55 171 36 196 -49 20 -68 49 -58 49 18 0 39 -47 109 -88 130 -37 19 -91
27 -122 17z"/>
</g>
</svg>
