<?xml version="1.0" standalone="no"?>
<!DOCTYPE svg PUBLIC "-//W3C//DTD SVG 20010904//EN"
 "http://www.w3.org/TR/2001/REC-SVG-20010904/DTD/svg10.dtd">
<svg version="1.0" xmlns="http://www.w3.org/2000/svg"
 width="200.000000pt" height="200.000000pt" viewBox="0 0 200.000000 200.000000"
 preserveAspectRatio="xMidYMid meet">

<g transform="translate(0.000000,200.000000) scale(0.100000,-0.100000)"
fill="#000000" stroke="none">
<path d="M124 1924 c-10 -8 -12 -12 -4 -7 8 4 53 11 100 14 l85 6 -81 1 c-60
2 -85 -2 -100 -14z"/>
<path d="M413 1923 c59 -2 155 -2 215 0 59 1 10 3 -108 3 -118 0 -167 -2 -107
-3z"/>
<path d="M1328 1913 c7 -3 16 -2 19 1 4 3 -2 6 -13 5 -11 0 -14 -3 -6 -6z"/>
<path d="M1372 1855 c0 -11 4 -31 8 -45 6 -20 8 -21 8 -5 0 11 -4 31 -8 45 -6
20 -8 21 -8 5z"/>
<path d="M987 1825 c-85 -29 -132 -97 -120 -171 8 -49 30 -43 38 11 7 45 44
95 71 95 7 0 15 6 17 13 4 8 8 9 14 1 4 -5 29 -18 55 -28 27 -10 77 -45 117
-80 71 -64 100 -77 146 -68 31 5 78 48 70 62 -4 6 -1 18 7 27 9 12 9 15 1 9
-9 -5 -13 -1 -13 12 0 26 -41 62 -72 62 -16 0 -32 -9 -42 -24 -20 -32 -3 -43
24 -16 24 24 34 25 55 4 24 -24 15 -66 -17 -82 -38 -18 -82 7 -140 78 -68 85
-144 119 -211 95z"/>
<path d="M343 1790 c-45 -10 -77 -33 -110 -77 -60 -81 -105 -109 -148 -93 -33
13 -40 32 -23 66 17 36 32 40 58 14 25 -25 45 -18 27 10 -8 14 -23 20 -49 20
-32 0 -40 -5 -54 -32 -30 -58 13 -138 75 -138 31 0 81 31 109 69 28 39 102 90
142 97 16 4 30 10 30 15 0 5 9 9 20 9 11 0 20 -5 20 -11 0 -5 4 -8 8 -5 12 7
49 -26 74 -69 23 -39 23 -46 28 -390 l6 -350 2 366 c2 430 1 438 -76 480 -49
27 -86 32 -139 19z"/>
<path d="M883 1545 c0 -33 2 -45 4 -27 2 18 2 45 0 60 -2 15 -4 0 -4 -33z"/>
<path d="M874 1160 c0 -157 2 -221 3 -142 2 78 2 206 0 285 -1 78 -3 14 -3
-143z"/>
<path d="M1424 1227 c-8 -5 -22 -6 -29 -3 -8 3 -17 1 -20 -3 -2 -5 -17 -12
-32 -16 -16 -3 -35 -13 -44 -21 -8 -8 -30 -16 -48 -18 -37 -4 -71 -31 -71 -57
0 -21 -28 -51 -40 -44 -14 9 -40 -49 -33 -73 3 -12 1 -22 -3 -22 -5 0 -9 -27
-9 -59 0 -33 3 -57 7 -54 5 2 7 -6 5 -18 -1 -16 6 -27 25 -36 23 -12 26 -17
18 -38 -11 -29 1 -40 29 -25 32 17 38 12 57 -40 15 -42 22 -50 43 -50 15 -1
41 -9 60 -19 30 -16 38 -16 60 -5 37 20 50 17 62 -10 13 -27 44 -25 60 5 15
29 42 25 37 -6 -4 -17 -1 -25 9 -25 8 0 11 -5 8 -10 -4 -7 3 -8 21 -4 19 5 25
4 20 -5 -7 -11 16 -9 61 4 7 2 19 -3 28 -11 8 -9 15 -13 15 -9 0 4 7 0 15 -9
9 -8 15 -19 14 -23 -4 -18 13 -41 27 -36 16 6 20 -4 28 -67 5 -33 3 -41 -4
-30 -9 12 -10 10 -8 -10 1 -15 -8 -40 -22 -60 -14 -19 -25 -41 -25 -50 0 -9
-11 -16 -30 -18 -34 -4 -57 -20 -49 -33 3 -5 -23 -9 -58 -9 -35 0 -81 -3 -102
-7 -24 -4 -37 -2 -33 3 3 6 -22 9 -63 7 -62 -2 -70 0 -75 18 -4 12 -12 18 -21
15 -8 -3 -13 0 -11 7 1 7 -5 11 -14 9 -9 -1 -19 4 -23 13 -3 8 -10 15 -16 15
-6 0 -8 -4 -5 -10 3 -5 1 -18 -5 -27 -7 -12 -10 -13 -7 -3 2 8 -2 21 -10 28
-7 8 -11 17 -8 21 2 5 -7 18 -20 31 -25 23 -25 23 -47 4 -12 -10 -18 -13 -14
-6 4 7 1 12 -9 12 -9 0 -14 -4 -10 -9 3 -6 -6 -7 -22 -2 -21 6 -36 3 -58 -12
-16 -10 -22 -17 -12 -13 13 4 17 0 17 -18 0 -13 7 -27 16 -30 9 -3 14 -15 12
-27 -3 -23 11 -34 55 -44 20 -4 27 -10 23 -20 -7 -19 24 -36 52 -28 23 6 76
-29 64 -42 -4 -4 3 -4 16 -1 13 5 22 3 22 -3 0 -7 8 -7 25 1 22 10 28 9 42
-11 15 -22 19 -23 147 -17 161 6 154 5 162 28 6 19 48 25 59 8 10 -16 24 -12
50 16 13 14 28 23 32 21 5 -3 10 8 11 25 3 40 9 48 33 48 11 0 19 -7 19 -16 0
-14 3 -14 16 -3 23 19 56 88 48 100 -4 6 -1 15 6 19 19 12 18 170 -1 170 -4 0
-6 8 -5 18 0 9 -5 16 -11 15 -7 -2 -13 6 -13 17 0 11 -6 20 -14 20 -21 0 -31
21 -15 31 23 14 -3 45 -35 41 -25 -3 -30 5 -27 34 1 13 -78 46 -90 38 -5 -3
-9 -1 -9 4 0 6 -8 8 -19 5 -10 -3 -33 2 -50 11 -17 9 -34 15 -38 14 -10 -2
-75 12 -87 20 -10 6 -34 10 -88 14 -14 2 -24 7 -20 12 3 5 -2 7 -11 3 -10 -4
-37 4 -63 18 -25 13 -49 24 -52 24 -25 -4 -34 3 -29 21 3 11 0 34 -6 50 -9 23
-9 35 1 50 15 24 15 33 2 25 -6 -4 -10 5 -10 20 0 22 4 26 23 24 26 -4 50 8
42 22 -3 5 0 7 7 4 18 -7 48 15 31 22 -7 2 -13 9 -13 14 0 6 4 8 9 5 5 -4 11
0 14 6 3 10 12 8 37 -6 25 -14 34 -16 40 -6 6 9 29 11 84 7 48 -3 74 -1 70 5
-4 6 4 8 17 6 15 -2 24 -9 23 -20 -1 -10 4 -14 12 -11 8 3 14 1 14 -4 0 -15
48 -34 55 -23 10 16 35 12 42 -6 3 -9 0 -20 -7 -24 -9 -6 -6 -11 11 -21 32
-18 77 -23 61 -7 -19 19 -14 28 14 28 16 0 23 -4 18 -12 -4 -7 -3 -8 4 -4 7 4
12 14 12 22 0 8 9 14 19 14 11 0 23 5 27 12 4 7 3 8 -4 4 -8 -4 -10 -2 -6 8 3
9 13 12 22 9 9 -3 1 11 -18 30 -19 20 -46 38 -60 39 -26 3 -50 20 -50 36 0 13
-29 24 -42 15 -6 -3 -8 -2 -5 4 4 6 -9 10 -30 11 -20 1 -43 8 -53 17 -19 18
-231 36 -256 22z m346 -569 c0 -9 3 -9 9 1 5 8 16 11 26 8 26 -11 7 -27 -30
-27 -26 0 -33 3 -29 15 7 18 24 20 24 3z"/>
<path d="M883 810 c0 -30 2 -43 4 -27 2 15 2 39 0 55 -2 15 -4 2 -4 -28z"/>
<path d="M890 722 c0 -17 4 -34 10 -37 6 -4 7 6 3 27 -8 44 -13 48 -13 10z"/>
<path d="M1170 720 c0 -5 5 -10 11 -10 5 0 7 5 4 10 -3 6 -8 10 -11 10 -2 0
-4 -4 -4 -10z"/>
<path d="M527 693 c-4 -3 -7 -13 -7 -22 1 -13 3 -13 11 2 11 19 8 33 -4 20z"/>
<path d="M510 643 c0 -6 -19 -32 -42 -59 l-42 -49 38 35 c41 38 61 68 52 78
-3 3 -6 1 -6 -5z"/>
<path d="M940 590 c6 -11 13 -20 16 -20 2 0 0 9 -6 20 -6 11 -13 20 -16 20 -2
0 0 -9 6 -20z"/>
<path d="M960 556 c0 -2 8 -10 18 -17 15 -13 16 -12 3 4 -13 16 -21 21 -21 13z"/>
<path d="M395 520 c-10 -11 -13 -20 -8 -20 13 0 38 29 31 35 -3 3 -13 -4 -23
-15z"/>
<path d="M1030 501 c0 -5 7 -12 16 -15 14 -5 15 -4 4 9 -14 17 -20 19 -20 6z"/>
<path d="M1056 455 c-9 -26 -7 -32 5 -12 6 10 9 21 6 23 -2 3 -7 -2 -11 -11z"/>
<path d="M370 434 c0 -18 24 -34 50 -33 20 1 21 2 5 6 -11 3 -28 12 -37 21
-10 8 -18 11 -18 6z"/>
<path d="M1000 410 c-13 -8 -13 -10 2 -10 9 0 20 5 23 10 8 13 -5 13 -25 0z"/>
</g>
</svg>
