<?xml version="1.0" standalone="no"?>
<!DOCTYPE svg PUBLIC "-//W3C//DTD SVG 20010904//EN"
 "http://www.w3.org/TR/2001/REC-SVG-20010904/DTD/svg10.dtd">
<svg version="1.0" xmlns="http://www.w3.org/2000/svg"
 width="200.000000pt" height="200.000000pt" viewBox="0 0 200.000000 200.000000"
 preserveAspectRatio="xMidYMid meet">

<g transform="translate(0.000000,200.000000) scale(0.100000,-0.100000)"
fill="#000000" stroke="none">
<path d="M1424 1227 c-8 -5 -22 -6 -29 -3 -8 3 -17 1 -20 -3 -2 -5 -17 -12
-32 -16 -16 -3 -35 -13 -44 -21 -8 -8 -30 -16 -48 -18 -37 -4 -71 -31 -71 -57
0 -21 -28 -51 -40 -44 -14 9 -40 -49 -33 -73 3 -12 1 -22 -3 -22 -5 0 -9 -27
-9 -59 0 -33 4 -57 9 -53 5 3 7 -2 3 -11 -7 -18 19 -77 34 -77 6 0 9 -6 7 -13
-4 -16 49 -70 71 -74 8 -1 21 -9 27 -17 6 -9 21 -16 33 -16 12 0 36 -7 53 -16
16 -8 50 -18 75 -20 25 -2 50 -7 55 -11 6 -3 28 -7 50 -8 21 -2 45 -8 52 -14
6 -5 23 -7 36 -4 15 4 21 2 17 -4 -5 -8 6 -9 32 -6 30 4 47 0 70 -16 17 -12
30 -25 29 -29 -2 -13 14 -42 22 -37 9 5 26 -34 35 -80 5 -24 4 -27 -5 -15 -9
12 -10 10 -8 -10 3 -26 -48 -109 -66 -110 -6 0 -28 -12 -49 -27 -37 -26 -47
-28 -154 -28 -63 -1 -116 1 -118 5 -2 3 -18 7 -35 8 -17 1 -40 11 -52 21 -11
11 -26 17 -33 15 -7 -3 -15 2 -18 10 -4 9 -12 16 -19 16 -7 0 -35 21 -61 45
-49 47 -55 47 -94 12 -13 -11 -23 -17 -23 -13 0 4 -13 -1 -30 -11 -20 -11 -30
-25 -30 -41 0 -30 71 -98 111 -106 17 -3 28 -10 24 -15 -6 -11 33 -36 42 -27
3 3 22 -6 43 -19 74 -47 215 -69 342 -55 127 15 199 35 219 61 9 12 21 19 27
15 5 -3 12 1 16 9 3 8 11 15 19 15 30 0 105 108 91 131 -4 6 -1 15 6 19 19 12
18 170 -1 170 -4 0 -6 8 -5 18 0 9 -5 16 -11 15 -7 -2 -13 6 -13 17 0 11 -6
20 -14 20 -21 0 -31 21 -15 31 20 12 -3 45 -30 42 -11 -2 -32 9 -45 22 -14 14
-22 25 -18 25 5 0 13 -5 20 -12 7 -7 12 -8 12 -2 0 13 -79 46 -91 38 -5 -3 -9
-1 -9 4 0 6 -8 8 -19 5 -10 -3 -33 2 -50 11 -17 9 -34 15 -38 14 -10 -2 -75
12 -87 20 -10 6 -34 10 -88 14 -14 2 -24 7 -20 12 3 5 -2 7 -11 3 -10 -4 -37
4 -63 18 -26 14 -50 23 -54 20 -5 -3 -16 20 -26 51 -14 44 -15 60 -6 75 6 10
9 24 6 32 -3 8 2 20 11 27 8 7 15 9 15 5 0 -4 7 -2 15 5 8 7 12 16 9 21 -3 5
1 6 9 3 8 -3 22 2 31 11 9 10 32 17 51 18 19 1 35 5 35 10 0 6 36 7 88 4 48
-4 93 -7 100 -7 7 0 10 -4 7 -10 -3 -6 1 -7 9 -4 9 3 16 2 16 -4 0 -5 13 -15
29 -22 16 -6 43 -24 61 -40 33 -30 75 -36 84 -13 3 8 10 12 15 8 6 -3 15 4 21
15 6 11 17 20 25 20 7 0 17 5 21 12 4 7 3 8 -4 4 -8 -4 -10 -2 -6 8 3 9 12 12
22 9 10 -3 2 10 -16 29 -18 19 -51 41 -73 47 -21 6 -39 18 -39 25 0 16 -27 29
-42 19 -7 -4 -8 -1 -4 6 5 8 3 11 -5 10 -8 -2 -34 5 -59 14 -51 20 -252 37
-276 24z"/>
</g>
</svg>
