<?xml version="1.0" standalone="no"?>
<!DOCTYPE svg PUBLIC "-//W3C//DTD SVG 20010904//EN"
 "http://www.w3.org/TR/2001/REC-SVG-20010904/DTD/svg10.dtd">
<svg version="1.0" xmlns="http://www.w3.org/2000/svg"
 width="200.000000pt" height="200.000000pt" viewBox="0 0 200.000000 200.000000"
 preserveAspectRatio="xMidYMid meet">
<metadata>
Created by potrace 1.16, written by Peter Selinger 2001-2019
</metadata>
<g transform="translate(0.000000,200.000000) scale(0.100000,-0.100000)"
fill="#000000" stroke="none">
<path d="M116 1923 c-29 -15 -63 -112 -76 -221 -12 -96 -1 -131 50 -152 41
-17 70 -1 160 85 82 78 116 95 196 95 55 0 65 -3 76 -22 10 -18 13 -115 12
-423 0 -398 -7 -561 -26 -622 -5 -19 -41 -65 -84 -107 -80 -81 -91 -109 -54
-146 19 -19 33 -20 326 -20 305 0 328 2 361 36 24 24 13 50 -42 98 -64 56
-102 123 -116 205 -16 97 -23 592 -10 751 19 231 32 260 117 260 48 0 116 -41
189 -113 24 -25 56 -47 71 -50 73 -14 137 41 136 116 0 48 -30 186 -44 204
-22 28 -125 33 -666 36 -416 1 -559 -1 -576 -10z"/>
</g>
</svg>
